<svg width="30" height="40" viewBox="0 0 55 72" fill="none" xmlns="http://www.w3.org/2000/svg">
<path d="M30.097 37.8531L33.8743 37.8731C36.2067 37.8854 37.3696 38.9703 37.3634 41.1274C37.3591 42.5806 36.9413 43.7172 36.111 44.5382C35.2801 45.3593 34.1297 45.7665 32.659 45.7587L27.6902 45.732L25.796 51.7977C23.7309 58.5012 21.5785 63.2281 19.339 65.979C17.0999 68.7299 14.3153 70.0965 10.9858 70.0787C7.84207 70.062 5.22189 68.6833 3.12622 65.9429C1.03008 63.202 -0.011809 59.7955 0.000100954 55.723C0.00915249 52.6632 0.634656 49.8434 1.87615 47.263C3.11764 44.6832 4.87365 42.5739 7.1432 40.9346C10.0225 38.8586 13.9895 37.8342 19.0431 37.8609L23.0486 37.8159L29.0131 18.6961C30.0374 15.3774 30.551 13.1126 30.5548 11.9021C30.5581 10.8672 30.2056 9.96836 29.4981 9.20508C28.7907 8.4418 27.9465 8.05794 26.9661 8.05238C25.3268 8.04405 23.8323 9.00455 22.4827 10.935C21.1331 12.8648 20.4552 15.0075 20.448 17.3629C20.4442 18.6394 20.6734 19.6588 21.1359 20.421C21.5985 21.1826 22.4036 21.8531 23.5513 22.4314C24.7661 23.0758 25.3716 24.0919 25.3678 25.479C25.364 26.7333 24.9971 27.7771 24.2678 28.6099C23.5389 29.4426 22.6333 29.8559 21.5514 29.8503C19.4052 29.8387 17.5787 28.6682 16.0733 26.3378C14.5674 24.0074 13.8194 21.1909 13.8294 17.8889C13.8437 13.0682 15.2424 8.87677 18.0246 5.31424C20.8072 1.7517 24.0663 -0.0192848 27.8017 0.000158356C30.5395 0.0146018 32.8224 1.10008 34.6499 3.25604C36.4773 5.41201 37.3863 8.10794 37.3763 11.3438C37.3701 13.3909 36.9232 15.8541 36.0362 18.7328L30.097 37.8531ZM20.7691 45.6954C17.2195 45.677 14.4969 46.1026 12.6013 46.9731C10.841 47.7786 9.45183 48.9435 8.43329 50.4678C7.41428 51.9922 6.90213 53.6793 6.89689 55.528C6.89165 57.2451 7.31804 58.7006 8.17651 59.8938C9.03498 61.0871 10.0812 61.6871 11.315 61.6932C12.8871 61.7015 14.3053 60.8121 15.5697 59.0245C16.8341 57.2374 18.0808 54.3659 19.3094 50.4095L20.7691 45.6954Z" fill="#0284C7"/>
<path d="M39.5429 46.0666L33.5022 67.4757C32.669 70.4327 31.3741 71.9404 29.6171 71.9988C28.9411 72.021 28.3547 71.7488 27.8573 71.1816C27.36 70.615 27.1003 69.9245 27.0784 69.1101C27.0599 68.4279 27.2433 67.3868 27.6282 65.9864L38.7816 26.3702C39.3528 24.3692 40.4075 23.3432 41.9449 23.2921C43.0091 23.2565 43.8719 23.8887 44.5327 25.1881C45.6712 23.5204 47.0933 22.6582 48.7997 22.601C50.5738 22.5421 52.0292 23.3693 53.1659 25.082C54.3031 26.7952 54.9105 29.0817 54.9876 31.942C55.1344 37.355 53.961 41.8097 51.4685 45.3061C50.6544 46.4566 49.8054 47.2554 48.9212 47.7032C48.037 48.1515 46.7927 48.402 45.1877 48.4554C43.4646 48.5126 42.2736 48.3981 41.6147 48.1121C40.9559 47.8254 40.2651 47.1438 39.5429 46.0666ZM41.4385 39.2643C41.8872 40.2187 42.3055 40.832 42.6933 41.1059C43.0811 41.3792 43.6889 41.5019 44.5169 41.4742C45.716 41.4342 46.6378 40.8203 47.2824 39.6315C48.5868 37.2317 49.2056 34.7885 49.1384 32.302C49.0808 30.1677 48.2747 29.1267 46.7203 29.1783C45.0138 29.235 43.8243 30.5632 43.1502 33.162C43.0735 33.4508 43.0125 33.6953 42.9672 33.8947L41.4385 39.2643Z" fill="#0284C7"/>
</svg>
