<?xml version="1.0" standalone="no"?>
<!DOCTYPE svg PUBLIC "-//W3C//DTD SVG 20010904//EN"
 "http://www.w3.org/TR/2001/REC-SVG-20010904/DTD/svg10.dtd">
<svg version="1.0" xmlns="http://www.w3.org/2000/svg"
 width="1048.000000pt" height="1048.000000pt" viewBox="0 0 1048.000000 1048.000000"
 preserveAspectRatio="xMidYMid meet">
<metadata>
Created by potrace 1.14, written by Peter Selinger 2001-2017
</metadata>
<g transform="translate(0.000000,1048.000000) scale(0.100000,-0.100000)"
fill="#000000" stroke="none">
<path d="M5118 10475 c-2 -2 -30 -7 -63 -10 -33 -4 -109 -20 -170 -36 -126
-33 -139 -37 -142 -39 -2 -2 -6 -3 -10 -4 -9 -3 -49 -19 -111 -47 -23 -10 -45
-18 -48 -18 -4 0 -10 -3 -13 -8 -3 -4 -31 -21 -61 -37 -54 -29 -202 -129 -270
-183 -49 -40 -258 -249 -300 -302 -19 -24 -50 -62 -67 -85 -18 -22 -40 -48
-48 -57 -8 -9 -15 -19 -15 -23 0 -4 -11 -19 -25 -34 -14 -15 -25 -30 -25 -34
0 -4 -14 -29 -32 -55 -17 -26 -39 -59 -48 -73 -48 -72 -142 -256 -185 -363
-14 -34 -30 -71 -36 -82 -53 -110 -160 -538 -163 -647 0 -10 -3 -18 -6 -18 -3
0 -5 -12 -6 -27 0 -16 -4 -66 -9 -113 -9 -94 -14 -510 -7 -524 3 -4 6 -29 8
-55 7 -109 19 -185 45 -301 5 -25 12 -54 14 -65 2 -11 4 -20 5 -20 1 0 3 -7 5
-15 8 -39 60 -191 81 -237 12 -29 20 -53 16 -53 -4 0 -2 -4 3 -8 6 -4 35 -55
65 -115 30 -59 58 -107 62 -107 5 0 8 -5 8 -11 0 -23 128 -187 206 -264 134
-134 305 -230 444 -251 19 -3 46 -7 60 -10 84 -14 289 10 306 37 3 5 10 7 15
4 5 -4 9 -1 9 4 0 6 6 11 13 11 28 0 197 160 197 186 0 7 3 14 8 16 18 8 72
140 87 213 15 70 17 209 5 268 -33 160 -114 260 -280 348 -76 40 -183 115
-228 159 -82 81 -152 202 -162 282 -1 4 -6 22 -12 40 -26 84 -28 384 -3 508 3
14 8 39 11 55 10 57 35 150 56 205 11 30 21 60 22 65 1 6 19 46 39 89 20 43
37 83 37 87 0 5 4 9 8 9 5 0 14 12 21 28 13 27 99 163 110 172 3 3 20 23 36
45 44 60 162 172 225 215 113 77 210 110 337 115 148 6 271 -42 376 -148 67
-67 131 -167 142 -225 2 -12 6 -25 8 -30 18 -28 25 -178 13 -272 -12 -92 -13
-96 -42 -226 -8 -39 -17 -79 -19 -90 -2 -10 -4 -19 -5 -19 -1 0 -3 -10 -6 -22
-2 -11 -18 -72 -35 -135 -17 -62 -32 -119 -32 -125 0 -7 -3 -13 -7 -13 -3 0
-6 -8 -7 -18 -1 -9 -16 -64 -33 -122 -18 -58 -36 -121 -41 -140 -6 -19 -13
-42 -16 -50 -4 -8 -7 -17 -8 -20 0 -3 -14 -45 -29 -95 -15 -49 -29 -97 -31
-107 -2 -9 -9 -27 -16 -40 -7 -13 -12 -24 -11 -25 1 -2 1 -5 1 -8 -1 -3 -3 -9
-4 -15 -1 -5 -3 -11 -5 -12 -1 -2 -3 -10 -5 -18 -11 -39 -144 -470 -152 -490
-4 -8 -7 -17 -8 -20 0 -3 -11 -39 -24 -80 -13 -41 -24 -79 -26 -85 -1 -5 -5
-17 -8 -25 -5 -13 -59 -186 -62 -200 -8 -33 -19 -67 -24 -75 -3 -5 -6 -15 -7
-21 -1 -6 -17 -58 -35 -115 -18 -57 -33 -106 -34 -109 -4 -16 -32 -108 -60
-195 -18 -55 -47 -147 -65 -205 -17 -58 -36 -116 -40 -130 -11 -32 -92 -292
-95 -305 -1 -5 -5 -17 -8 -25 -3 -8 -22 -69 -42 -135 -20 -66 -40 -124 -44
-128 -5 -4 -187 -10 -407 -12 -360 -4 -457 -7 -604 -19 -55 -5 -154 -16 -195
-22 -16 -2 -46 -6 -65 -9 -19 -2 -46 -6 -60 -9 -14 -3 -47 -10 -75 -16 -332
-68 -598 -172 -840 -329 -22 -14 -41 -29 -43 -33 -2 -5 -10 -8 -17 -8 -7 0
-15 -3 -17 -7 -1 -5 -24 -24 -50 -44 -117 -89 -284 -246 -356 -336 -18 -23
-44 -54 -58 -70 -14 -15 -40 -50 -59 -78 -19 -27 -48 -69 -65 -93 -16 -23 -30
-45 -30 -47 0 -2 -13 -23 -29 -47 -45 -69 -191 -374 -191 -400 0 -8 -3 -18 -7
-21 -13 -14 -85 -235 -96 -298 -3 -13 -10 -42 -16 -64 -6 -22 -13 -57 -17 -79
-3 -21 -8 -48 -10 -60 -3 -11 -7 -39 -10 -61 -3 -22 -7 -51 -10 -65 -19 -114
-26 -566 -11 -700 47 -425 163 -758 373 -1073 47 -71 92 -131 100 -134 8 -3
14 -11 14 -17 0 -17 202 -221 251 -253 21 -14 39 -30 39 -34 0 -5 4 -9 10 -9
5 0 32 -16 58 -35 72 -52 267 -143 342 -160 8 -2 40 -10 70 -19 30 -8 75 -17
100 -20 25 -4 63 -9 85 -12 46 -7 266 -7 310 0 17 2 55 7 85 11 30 3 69 10 85
15 17 5 41 11 55 14 72 13 323 112 340 135 3 3 22 14 42 25 106 54 318 239
428 375 19 23 43 53 54 64 29 35 178 264 231 357 47 82 205 394 205 404 0 2
15 37 33 78 75 162 215 524 281 723 15 44 31 89 35 100 5 11 32 92 59 180 28
88 54 171 58 185 4 14 8 27 9 30 0 3 10 34 22 70 24 75 105 331 159 505 20 66
47 152 59 190 l22 70 404 0 c222 1 407 -1 411 -2 4 -2 0 -22 -8 -45 -8 -22
-17 -53 -20 -67 -6 -30 -9 -41 -17 -61 -12 -30 -60 -215 -61 -232 0 -10 -3
-18 -7 -18 -4 0 -10 -15 -13 -33 -3 -17 -31 -120 -62 -227 -31 -107 -57 -199
-58 -205 -2 -5 -8 -30 -15 -55 -7 -25 -15 -52 -17 -60 -1 -8 -12 -46 -24 -85
-12 -38 -23 -81 -26 -95 -2 -14 -9 -36 -14 -50 -5 -14 -41 -140 -80 -280 -95
-340 -134 -480 -160 -570 -12 -41 -23 -79 -24 -85 -2 -5 -8 -30 -15 -55 -7
-25 -15 -52 -17 -60 -4 -17 -47 -167 -63 -217 -5 -18 -8 -33 -5 -33 2 0 -2
-13 -11 -30 -9 -16 -14 -30 -11 -30 2 0 -9 -44 -25 -97 -17 -54 -32 -109 -35
-123 -9 -40 -10 -43 -24 -90 -7 -25 -14 -49 -16 -55 -1 -5 -11 -46 -22 -90
-45 -177 -62 -319 -48 -413 24 -162 151 -318 286 -347 67 -15 180 -1 235 29
11 5 23 10 27 11 12 0 103 73 135 108 17 19 48 61 69 93 22 32 43 62 47 65 5
3 8 9 8 12 0 6 14 43 54 132 20 46 37 94 35 97 -1 2 4 17 10 33 11 26 22 65
61 205 16 57 19 69 23 90 3 11 7 24 10 28 3 5 7 19 10 33 3 13 17 65 32 114
14 50 27 97 29 105 2 8 15 56 30 105 15 50 28 97 30 105 1 8 10 41 20 74 9 32
18 64 20 70 1 6 5 18 8 26 6 15 26 90 32 120 2 8 8 27 14 43 6 15 8 27 5 27
-4 0 0 7 7 17 8 9 12 17 10 17 -4 1 12 65 39 156 29 99 70 244 75 266 2 10 29
107 60 214 31 107 58 202 60 210 12 43 25 91 40 140 9 30 18 62 20 70 9 40
157 567 162 580 3 8 7 20 8 25 2 6 8 30 16 55 7 25 13 50 15 55 1 6 10 37 20
70 10 33 19 62 19 65 28 103 28 102 38 84 6 -11 13 -21 17 -24 3 -3 17 -21 29
-40 41 -61 166 -177 219 -204 49 -25 87 -36 182 -53 87 -15 520 -7 610 12 13
2 41 7 62 10 83 13 220 64 293 111 95 60 222 186 293 289 15 22 30 42 33 45
12 9 134 213 172 286 56 108 162 364 164 397 1 4 6 20 11 35 6 15 17 47 23 72
7 25 13 47 14 50 1 3 5 23 10 45 13 56 12 55 15 58 1 1 3 11 5 22 4 22 17 85
21 100 1 6 5 28 8 50 4 23 8 52 11 65 8 42 21 154 32 285 10 109 10 542 0 640
-11 113 -18 168 -32 238 -3 15 -7 38 -9 52 -5 30 -54 202 -63 225 -3 8 -7 17
-8 20 -29 84 -113 240 -172 322 -96 130 -221 235 -328 273 -27 9 -57 20 -65
23 -8 3 -18 5 -21 4 -4 -1 -22 3 -40 9 -34 10 -196 14 -234 5 -126 -28 -145
-35 -230 -79 -87 -45 -190 -137 -275 -246 -34 -44 -34 -44 -44 -20 -6 13 -16
30 -24 37 -7 8 -19 26 -26 40 -16 31 -100 112 -115 112 -6 0 -11 5 -11 10 0 6
-7 10 -15 10 -8 0 -15 5 -15 12 0 6 -3 9 -6 6 -3 -4 -21 0 -39 8 -42 17 -134
20 -198 5 -78 -18 -139 -52 -198 -111 -96 -96 -135 -175 -204 -415 -25 -88
-47 -169 -50 -180 -2 -11 -13 -51 -25 -90 -12 -38 -23 -81 -26 -94 -3 -14 -7
-28 -10 -33 -3 -4 -7 -16 -9 -25 -2 -10 -10 -43 -19 -73 -8 -30 -22 -82 -31
-115 -9 -33 -20 -71 -25 -85 -5 -14 -12 -36 -15 -50 -2 -14 -12 -50 -21 -80
-9 -30 -19 -68 -24 -85 -5 -16 -18 -64 -30 -105 -12 -41 -28 -97 -35 -125 -7
-27 -32 -115 -55 -195 -23 -80 -43 -152 -46 -160 -32 -127 -31 -126 -76 -112
-57 19 -133 23 -436 25 -162 1 -295 5 -298 8 -2 4 1 20 7 36 6 15 12 35 14 43
2 8 20 67 40 130 20 63 37 120 39 125 11 40 59 195 67 215 5 14 11 34 13 45 3
11 14 47 26 80 11 33 20 60 20 60 -1 0 1 7 4 15 6 20 59 194 61 200 0 3 6 21
12 40 6 19 32 103 58 185 25 83 49 157 52 165 3 8 7 20 7 25 3 17 37 128 57
183 10 28 16 52 13 52 -4 0 -2 6 3 13 6 6 14 26 18 42 5 17 9 35 11 40 2 6 15
48 29 95 14 47 27 91 30 98 2 7 5 14 5 17 0 3 6 22 14 42 8 21 28 85 46 143
44 146 110 360 120 390 27 77 150 490 154 513 1 7 5 18 9 25 5 6 6 12 3 12 -2
0 0 15 5 33 12 38 19 65 24 92 2 11 6 30 9 43 12 46 27 124 41 212 3 19 7 46
10 60 34 185 39 520 10 700 -15 94 -38 200 -52 243 -8 26 -16 53 -17 60 -11
65 -121 293 -197 408 -106 161 -268 323 -419 421 -132 85 -300 152 -438 174
-19 3 -44 8 -56 11 -24 6 -353 13 -358 8z m3077 -4270 c92 -44 151 -138 178
-280 14 -75 16 -354 3 -415 -3 -14 -7 -46 -10 -71 -6 -56 -40 -206 -62 -274
-8 -27 -17 -57 -19 -65 -2 -8 -9 -28 -16 -45 -7 -16 -13 -32 -14 -35 -7 -28
-24 -68 -56 -138 -22 -46 -39 -85 -39 -87 0 -10 -102 -173 -122 -195 -58 -63
-195 -150 -211 -133 -3 2 -15 0 -26 -7 -22 -11 -176 -15 -221 -6 -14 3 -38 9
-55 12 -38 8 -104 54 -130 90 -11 15 -26 33 -32 40 -7 7 -13 15 -13 17 0 3
-19 37 -41 77 -40 68 -41 73 -30 113 7 23 14 53 17 67 3 14 6 30 7 35 2 6 5
15 9 20 4 8 13 41 23 85 1 3 9 32 19 65 10 33 20 67 21 75 2 8 4 15 5 15 1 0
3 7 5 15 2 8 11 40 19 70 9 30 18 62 20 70 3 8 18 62 34 120 17 58 42 152 57
210 15 58 32 111 38 118 5 6 7 12 4 12 -12 0 86 209 116 248 45 57 140 142
182 162 112 53 246 59 340 15z m-3942 -2382 c4 -7 1 -26 -8 -43 -8 -16 -13
-30 -10 -30 3 0 1 -9 -5 -21 -6 -11 -13 -29 -15 -39 -4 -19 -62 -213 -72 -240
-3 -8 -7 -19 -8 -25 -2 -5 -21 -69 -44 -142 -23 -72 -44 -140 -46 -150 -7 -32
-153 -455 -170 -488 -8 -18 -15 -40 -15 -48 0 -9 -4 -18 -9 -21 -5 -3 -12 -17
-15 -31 -4 -14 -18 -51 -32 -83 -14 -31 -29 -66 -34 -77 -111 -253 -264 -515
-349 -595 -9 -8 -26 -27 -37 -42 -57 -74 -204 -174 -302 -207 -88 -30 -214
-42 -282 -28 -47 10 -140 41 -140 46 0 3 -12 12 -27 18 -31 14 -66 42 -130
105 -44 43 -133 167 -133 185 0 6 -3 13 -8 15 -14 6 -66 145 -72 193 -1 6 -5
15 -10 20 -5 6 -11 30 -15 55 -3 25 -8 68 -12 95 -9 65 -9 246 0 310 12 91 24
160 27 160 1 0 3 10 6 22 8 45 47 151 86 233 154 324 433 576 792 715 67 26
256 77 326 89 19 3 49 8 65 11 17 3 45 8 64 11 19 3 60 8 90 10 31 3 70 7 86
9 17 3 95 7 175 11 80 3 146 7 147 8 1 0 30 1 65 1 39 0 66 -5 71 -12z"/>
</g>
</svg>
