<svg width="150" height="50" viewBox="0 0 121 41" fill="none" xmlns="http://www.w3.org/2000/svg">
<path d="M20.5086 22.1974H23.0576C24.6317 22.1974 25.4187 22.8249 25.4187 24.0797C25.4187 24.9248 25.1391 25.5873 24.5804 26.0675C24.0214 26.5476 23.2459 26.7876 22.2538 26.7876H18.9003L17.6345 30.3217C16.2542 34.2268 14.8114 36.9828 13.306 38.5896C11.8004 40.1965 9.92422 41 7.67726 41C5.55593 41 3.78522 40.2062 2.36514 38.6186C0.945297 37.0307 0.235138 35.0527 0.235138 32.6839C0.235138 30.9042 0.651383 29.2621 1.48412 27.7577C2.31662 26.2532 3.49716 25.0208 5.02552 24.0605C6.96451 22.8441 9.63896 22.2358 13.0494 22.2358L15.7524 22.1974L19.7387 11.0581C20.423 9.12475 20.7652 7.80579 20.7652 7.1017C20.7652 6.49997 20.5257 5.97822 20.0466 5.53645C19.5676 5.09469 18.9973 4.87368 18.3359 4.87368C17.2294 4.87368 16.223 5.43727 15.3162 6.56391C14.4094 7.69054 13.9562 8.939 13.9562 10.309C13.9562 11.0518 14.113 11.6438 14.4266 12.0855C14.7402 12.5273 15.2848 12.9146 16.0604 13.2474C16.8816 13.6189 17.2922 14.2078 17.2922 15.0145C17.2922 15.7443 17.0471 16.3524 16.5566 16.8391C16.066 17.3256 15.4559 17.5687 14.7259 17.5687C13.2774 17.5687 12.0427 16.8933 11.022 15.5425C10.0013 14.1917 9.49084 12.5562 9.49084 10.6355C9.49084 7.83156 10.426 5.38912 12.2966 3.30845C14.1671 1.22778 16.3627 0.187439 18.8832 0.187439C20.731 0.187439 22.2737 0.8118 23.5112 2.05999C24.7487 3.30845 25.3674 4.87368 25.3674 6.75597C25.3674 7.94681 25.0709 9.38076 24.4777 11.0581L20.5086 22.1974V22.1974ZM14.2299 26.7876C11.8346 26.7876 9.99828 27.0439 8.72094 27.5559C7.53476 28.0297 6.59959 28.7114 5.91522 29.6013C5.23084 30.4911 4.88865 31.4738 4.88865 32.5494C4.88865 33.5482 5.17952 34.3933 5.76123 35.0845C6.34295 35.776 7.05007 36.1217 7.88257 36.1217C8.94335 36.1217 9.89865 35.5999 10.7483 34.5564C11.5979 33.5129 12.4334 31.8388 13.2547 29.5342L14.2299 26.7876V26.7876Z" fill="#0284C7"/>
<path d="M27.575 24.1757C27.575 24.6215 27.8741 24.8443 28.4722 24.8443H30.8309C31.498 24.8443 31.8315 25.1087 31.8315 25.6376C31.8315 26.0001 31.7136 26.2825 31.478 26.4845C31.2425 26.6866 30.913 26.7876 30.4894 26.7876H28.242C27.4055 26.7876 26.769 26.5558 26.3321 26.0922C25.8952 25.6289 25.677 24.9511 25.677 24.0597C25.677 22.9128 26.0225 21.9232 26.7132 21.091C27.4041 20.2591 28.2261 19.8431 29.1791 19.8431C29.8726 19.8431 30.4299 20.0465 30.8506 20.4538C31.2715 20.8608 31.482 21.397 31.482 22.0627C31.482 22.8652 31.1909 23.4595 30.6085 23.8458C30.2855 24.0658 29.8037 24.1757 29.1631 24.1757H27.575V24.1757ZM27.9561 22.5531H28.8296C29.3961 22.5531 29.6715 22.4134 29.6555 22.134C29.6396 21.8191 29.457 21.6617 29.1076 21.6617C28.6205 21.6617 28.2366 21.9588 27.9561 22.5531V22.5531Z" fill="#0284C7"/>
<path d="M34.1188 21.92L33.8488 22.6688C33.6053 23.3345 33.2877 23.6673 32.8958 23.6673C32.6577 23.6673 32.4592 23.5871 32.3003 23.4266C32.1414 23.2664 32.0619 23.0672 32.0619 22.8293C32.0619 22.6928 32.1203 22.461 32.2368 22.1339L33.1342 19.6468C33.3512 19.0466 33.6582 18.7464 34.0553 18.7464C34.4471 18.7464 34.6878 18.9545 34.7778 19.3705L34.8413 19.6468C34.8732 19.7894 34.9208 19.8786 34.9843 19.9143C35.0479 19.9499 35.2042 19.9677 35.4528 19.9677H37.3112C38.0047 19.9677 38.3516 20.2411 38.3516 20.7879C38.3516 21.5427 37.9121 21.92 37.0332 21.92L36.9458 22.0092C36.1042 22.9127 35.6832 23.611 35.6832 24.1044C35.6832 24.5974 35.9268 24.8442 36.4138 24.8442H37.4146C38.0867 24.8442 38.4231 25.1058 38.4231 25.6288C38.4231 25.9972 38.3052 26.2824 38.0696 26.4845C37.8341 26.6865 37.5046 26.7876 37.0808 26.7876H35.5243C34.9951 26.7876 34.5622 26.5826 34.2261 26.1724C33.8898 25.7625 33.7217 25.2305 33.7217 24.5766C33.7217 24.1607 33.8117 23.7565 33.9917 23.3642C34.1717 22.9719 34.4893 22.4907 34.9447 21.92H34.1188V21.92Z" fill="#0284C7"/>
<path d="M40.5148 24.1757C40.5148 24.6215 40.8141 24.8443 41.4122 24.8443H43.7708C44.438 24.8443 44.7715 25.1087 44.7715 25.6376C44.7715 26.0001 44.6537 26.2825 44.4181 26.4845C44.1826 26.6866 43.853 26.7876 43.4293 26.7876H41.1821C40.3456 26.7876 39.7088 26.5558 39.2721 26.0922C38.8353 25.6289 38.6168 24.9511 38.6168 24.0597C38.6168 22.9128 38.9623 21.9232 39.6532 21.091C40.3442 20.2591 41.1661 19.8431 42.1191 19.8431C42.8126 19.8431 43.3698 20.0465 43.7907 20.4538C44.2116 20.8608 44.4221 21.397 44.4221 22.0627C44.4221 22.8652 44.1308 23.4595 43.5486 23.8458C43.2256 24.0658 42.7437 24.1757 42.1032 24.1757H40.5148V24.1757ZM40.8962 22.5531H41.7697C42.3361 22.5531 42.6115 22.4134 42.5956 22.134C42.5797 21.8191 42.3971 21.6617 42.0476 21.6617C41.5606 21.6617 41.1767 21.9588 40.8962 22.5531V22.5531Z" fill="#0284C7"/>
<path d="M54.7883 24.8443H55.7333C56.4003 24.8443 56.7339 25.1087 56.7339 25.6376C56.7339 26.0001 56.6162 26.2825 56.3806 26.4845C56.1449 26.6866 55.8181 26.7877 55.3998 26.7877H53.7877C53.4383 26.7877 53.1552 26.6837 52.9379 26.4756C52.7209 26.2677 52.6124 25.9944 52.6124 25.6555C52.6124 25.4237 52.6838 25.1087 52.8268 24.7106L53.5733 22.6689C53.6157 22.5502 53.6368 22.4403 53.6368 22.3392C53.6368 21.953 53.4622 21.7596 53.1127 21.7596C52.8427 21.7596 52.5753 21.8964 52.3107 22.1698C52.0459 22.4431 51.8342 22.8057 51.6753 23.2575L50.7859 25.7178C50.4948 26.5143 50.0713 26.9126 49.5153 26.9126C49.2983 26.9126 49.1129 26.8324 48.9594 26.6719C48.8059 26.5114 48.7292 26.3212 48.7292 26.1012C48.7292 25.9289 48.7689 25.7268 48.8483 25.495L48.9357 25.2542L49.8329 22.767C49.9124 22.5471 49.9522 22.3747 49.9522 22.25C49.9522 22.1193 49.8992 22.0048 49.7933 21.9067C49.6874 21.8088 49.5629 21.7596 49.4199 21.7596C48.8483 21.7596 48.3955 22.2232 48.062 23.1504L47.1329 25.7089C46.8418 26.5114 46.4209 26.9126 45.8703 26.9126C45.6533 26.9126 45.4665 26.8337 45.3104 26.6763C45.1543 26.5187 45.076 26.3272 45.076 26.1012C45.076 25.9231 45.1159 25.721 45.1953 25.495L45.2825 25.2542L46.8629 20.8861C47.0853 20.2738 47.4188 19.9678 47.8635 19.9678C48.3242 19.9678 48.6099 20.2114 48.7213 20.6987C49.0813 20.354 49.3738 20.1254 49.5988 20.0123C49.8238 19.8994 50.1003 19.8431 50.4284 19.8431C51.1379 19.8431 51.6699 20.1907 52.0248 20.8861C52.6178 20.1907 53.2848 19.8431 54.0259 19.8431C54.5342 19.8431 54.9592 20.0078 55.3007 20.3377C55.6421 20.6677 55.8128 21.0731 55.8128 21.5546C55.8128 21.8577 55.7546 22.1698 55.6381 22.4908L54.7883 24.8443V24.8443Z" fill="#0284C7"/>
<path d="M61.7351 27.1533H62.6562C63.3286 27.1533 63.665 27.4177 63.665 27.9466C63.665 28.3092 63.5471 28.5915 63.3115 28.7935C63.076 28.9956 62.7462 29.0967 62.3227 29.0967H61.0362C60.8827 29.6079 60.6047 30.2854 60.2026 31.1292C59.5037 32.615 58.4872 33.358 57.1531 33.358C56.3431 33.358 55.6627 33.0728 55.1122 32.5021C54.5616 31.9317 54.2863 31.2244 54.2863 30.3804C54.2863 29.7921 54.4358 29.2437 54.7348 28.7357C55.0341 28.2273 55.4272 27.8456 55.9142 27.5901C56.4753 27.2988 57.3038 27.1533 58.3997 27.1533H59.6942L59.9246 26.5113C59.5327 26.6955 59.1727 26.7876 58.8446 26.7876C58.2781 26.7876 57.8187 26.6258 57.4667 26.3019C57.1147 25.978 56.9387 25.5573 56.9387 25.0403C56.9387 24.7253 57.0523 24.2528 57.2801 23.6229L58.1457 21.2247L58.2331 20.9752C58.4872 20.3035 58.8816 19.9678 59.4162 19.9678C59.6492 19.9678 59.8437 20.0509 60.0001 20.2175C60.1561 20.3838 60.2342 20.5948 60.2342 20.8502C60.2342 21.0226 60.1655 21.302 60.0277 21.6883L59.2496 23.8189C59.1277 24.1636 59.0642 24.3867 59.0591 24.4877C59.0431 24.7787 59.2072 24.9245 59.5512 24.9245C59.7948 24.9245 60.0437 24.8443 60.2977 24.6838C60.5518 24.5233 60.7133 24.342 60.7822 24.1399L61.8462 21.2247L61.9257 20.9752C62.1746 20.3035 62.569 19.9678 63.109 19.9678C63.342 19.9678 63.5365 20.0525 63.6926 20.2219C63.8487 20.3911 63.927 20.6008 63.927 20.8502C63.927 21.0226 63.8872 21.2218 63.8077 21.4478L63.7126 21.6883L61.7351 27.1533ZM59.1383 29.0967H58.0266C56.8088 29.0967 56.2002 29.5245 56.2002 30.3804C56.2002 30.6835 56.2833 30.9271 56.4502 31.1113C56.6171 31.2957 56.8407 31.3878 57.1212 31.3878C57.5077 31.3878 57.8506 31.2184 58.1497 30.8798C58.4488 30.5409 58.7783 29.9465 59.1383 29.0967V29.0967Z" fill="#0284C7"/>
<path d="M85.2149 14.6098L82.5784 21.92C81.2655 25.5336 80.2515 28.0239 79.5369 29.3908C78.8221 30.7576 77.9195 31.9227 76.829 32.8854C75.2406 34.288 73.3982 34.9895 71.3017 34.9895C69.0887 34.9895 67.2941 34.2049 65.9176 32.6357C64.5411 31.0668 63.8528 29.0282 63.8528 26.5202C63.8528 23.1682 64.9433 20.2382 67.1247 17.73C68.2998 16.375 69.7717 15.2844 71.54 14.4582C73.3082 13.6323 75.0606 13.2192 76.7971 13.2192C77.6336 13.2192 78.306 13.4303 78.8141 13.852C79.3225 14.2741 79.5765 14.8297 79.5765 15.5191C79.5765 16.2442 79.3011 16.8267 78.7506 17.2664C78.433 17.5279 77.8241 17.7063 76.9241 17.8013C74.8276 18.0155 73.1282 18.5562 71.8257 19.4239C70.7457 20.149 69.8935 21.097 69.2687 22.2679C68.6441 23.4387 68.3317 24.6719 68.3317 25.9675C68.3317 27.2869 68.6361 28.336 69.2448 29.1145C69.8537 29.8931 70.6717 30.2822 71.6987 30.2822C72.9906 30.2822 74.1076 29.6702 75.05 28.4459C75.9925 27.2214 77.0301 25.0463 78.163 21.92L83.6743 6.71122H81.943C80.4819 6.71122 79.7511 6.14079 79.7511 4.99968C79.7511 4.19141 80.008 3.56441 80.5215 3.11844C81.0351 2.67273 81.7579 2.44989 82.6895 2.44989H88.7408C90.7738 2.44989 92.2747 2.88085 93.2434 3.74254C94.2123 4.60449 94.6968 5.93267 94.6968 7.7276C94.6968 9.91457 93.9449 11.7037 92.4414 13.0943C91.3508 14.1046 89.6673 14.6098 87.3908 14.6098H85.2149V14.6098ZM86.7554 10.3484H88.0419C89.736 10.3484 90.5833 9.57596 90.5833 8.03072C90.5833 7.15114 90.1014 6.71122 89.1379 6.71122H88.0738L86.7554 10.3484V10.3484Z" fill="#0284C7"/>
<path d="M85.0883 24.1757C85.0883 24.6215 85.3873 24.8443 85.9855 24.8443H88.3442C89.0112 24.8443 89.3448 25.1087 89.3448 25.6376C89.3448 26.0001 89.2269 26.2825 88.9913 26.4845C88.7558 26.6866 88.4262 26.7876 88.0027 26.7876H85.7553C84.9188 26.7876 84.2823 26.5558 83.8454 26.0922C83.4088 25.6289 83.1903 24.9511 83.1903 24.0597C83.1903 22.9128 83.5358 21.9232 84.2265 21.091C84.9174 20.2591 85.7394 19.8431 86.6923 19.8431C87.3859 19.8431 87.9432 20.0465 88.3639 20.4538C88.7848 20.8608 88.9953 21.397 88.9953 22.0627C88.9953 22.8652 88.7042 23.4595 88.1218 23.8458C87.7988 24.0658 87.3172 24.1757 86.6764 24.1757H85.0883V24.1757ZM85.4694 22.5531H86.3429C86.9093 22.5531 87.1847 22.4134 87.1688 22.134C87.1529 21.8191 86.9703 21.6617 86.6208 21.6617C86.1338 21.6617 85.7499 21.9588 85.4694 22.5531V22.5531Z" fill="#0284C7"/>
<path d="M91.4703 21.92L91.2004 22.6688C90.9568 23.3345 90.6392 23.6673 90.2474 23.6673C90.0092 23.6673 89.8107 23.5871 89.6518 23.4266C89.4929 23.2664 89.4137 23.0672 89.4137 22.8293C89.4137 22.6928 89.4718 22.461 89.5883 22.1339L90.4857 19.6468C90.7028 19.0466 91.0098 18.7464 91.4068 18.7464C91.7987 18.7464 92.0396 18.9545 92.1296 19.3705L92.1932 19.6468C92.2248 19.7894 92.2724 19.8786 92.3359 19.9143C92.3996 19.9499 92.5557 19.9677 92.8046 19.9677H94.6628C95.3563 19.9677 95.7032 20.2411 95.7032 20.7879C95.7032 21.5427 95.2637 21.92 94.3848 21.92L94.2976 22.0092C93.4557 22.9127 93.0348 23.611 93.0348 24.1044C93.0348 24.5974 93.2783 24.8442 93.7654 24.8442H94.7661C95.4383 24.8442 95.7747 25.1058 95.7747 25.6288C95.7747 25.9972 95.6568 26.2824 95.4212 26.4845C95.1857 26.6865 94.8562 26.7876 94.4326 26.7876H92.8761C92.3467 26.7876 91.9138 26.5826 91.5777 26.1724C91.2414 25.7625 91.0733 25.2305 91.0733 24.5766C91.0733 24.1607 91.1633 23.7565 91.3433 23.3642C91.5233 22.9719 91.8409 22.4907 92.2963 21.92H91.4703V21.92Z" fill="#0284C7"/>
<path d="M98.7688 22.4016L98.6178 22.8118C98.3849 23.4001 98.0539 23.6943 97.625 23.6943C97.408 23.6943 97.2135 23.6095 97.0414 23.4401C96.8694 23.2709 96.7834 23.0762 96.7834 22.8563C96.7834 22.6481 96.86 22.3719 97.0135 22.0272L98.0699 19.6203C98.3293 19.0435 98.6523 18.7554 99.0388 18.7554C99.2452 18.7554 99.4224 18.8312 99.5708 18.9828C99.7189 19.1343 99.793 19.314 99.793 19.5221C99.793 19.5755 99.7773 19.6916 99.7454 19.8697C99.7243 20.0005 99.7138 20.1165 99.7138 20.2175C99.7138 20.5919 99.838 20.9753 100.087 21.3676L100.539 22.0717C101 22.791 101.23 23.4862 101.23 24.1579C101.23 24.9067 100.982 25.5321 100.484 26.0344C99.9863 26.5366 99.3669 26.7877 98.6258 26.7877H96.966C96.2935 26.7877 95.9575 26.5261 95.9575 26.0033C95.9575 25.6408 96.0765 25.3569 96.3149 25.1519C96.553 24.9469 96.8813 24.8443 97.2995 24.8443H98.2208C98.9565 24.8443 99.3245 24.5441 99.3245 23.944C99.3245 23.724 99.2558 23.4654 99.118 23.1683L98.7688 22.4016Z" fill="#0284C7"/>
<path d="M103.684 24.8443H104.581C105.248 24.8443 105.582 25.1087 105.582 25.6376C105.582 26.0001 105.464 26.2824 105.228 26.4845C104.993 26.6866 104.663 26.7876 104.24 26.7876H102.977C102.511 26.7876 102.144 26.6808 101.877 26.4669C101.61 26.2527 101.476 25.9617 101.476 25.5931C101.476 25.3971 101.532 25.1474 101.643 24.8443L102.953 21.2247L103.041 20.9753C103.284 20.3035 103.676 19.9678 104.216 19.9678C104.438 19.9678 104.63 20.0509 104.792 20.2175C104.953 20.3838 105.034 20.583 105.034 20.8148C105.034 21.005 104.962 21.296 104.819 21.6883L103.684 24.8443V24.8443ZM104.732 17.1238C105.039 17.1238 105.3 17.2443 105.514 17.4851C105.729 17.7256 105.836 18.0184 105.836 18.3631C105.836 18.7078 105.729 19.0006 105.514 19.2411C105.3 19.4818 105.039 19.6023 104.732 19.6023C104.425 19.6023 104.164 19.4818 103.95 19.2411C103.735 19.0006 103.628 18.7078 103.628 18.3631C103.628 18.0184 103.735 17.7256 103.95 17.4851C104.164 17.2443 104.425 17.1238 104.732 17.1238Z" fill="#0284C7"/>
<path d="M111.767 24.8443H112.72C113.393 24.8443 113.729 25.1087 113.729 25.6376C113.729 26.0001 113.61 26.2825 113.371 26.4845C113.133 26.6866 112.805 26.7877 112.387 26.7877H110.727C110.404 26.7877 110.133 26.6777 109.913 26.458C109.693 26.238 109.583 25.9617 109.583 25.6289C109.583 25.4268 109.658 25.1237 109.806 24.7196L110.505 22.776C110.579 22.5739 110.618 22.4105 110.624 22.2855C110.629 22.1429 110.577 22.0211 110.469 21.9201C110.36 21.8191 110.221 21.7685 110.052 21.7685C109.507 21.7685 109.067 22.2292 108.734 23.1504L107.797 25.7357C107.516 26.5203 107.098 26.9126 106.542 26.9126C106.314 26.9126 106.121 26.8353 105.962 26.6808C105.803 26.5261 105.724 26.3361 105.724 26.1101C105.724 25.9438 105.766 25.7447 105.851 25.5129L105.938 25.2721L107.542 20.8327C107.749 20.2559 108.101 19.9678 108.599 19.9678C109.006 19.9678 109.298 20.1699 109.472 20.574C110.039 20.0867 110.579 19.8431 111.092 19.8431C111.59 19.8431 112 20.0033 112.323 20.3243C112.646 20.6453 112.808 21.0523 112.808 21.5457C112.808 21.819 112.749 22.1193 112.633 22.446L111.767 24.8443Z" fill="#0284C7"/>
<path d="M118.538 27.0373H119.491C120.164 27.0373 120.5 27.2988 120.5 27.8219C120.5 28.1845 120.381 28.4681 120.142 28.6733C119.904 28.8783 119.576 28.9806 119.158 28.9806H117.839L117.506 29.8989C116.696 32.1277 115.513 33.242 113.956 33.242C113.141 33.242 112.462 32.9599 111.919 32.3953C111.377 31.8306 111.105 31.1234 111.105 30.2735C111.105 29.7208 111.236 29.2022 111.498 28.7178C111.76 28.2334 112.119 27.8485 112.574 27.5633C113.135 27.2125 113.89 27.0373 114.838 27.0373H116.545L116.791 26.3419C116.458 26.5679 116.143 26.6808 115.846 26.6808C115.28 26.6808 114.82 26.4608 114.468 26.0209C114.116 25.5813 113.94 25.0077 113.94 24.3004C113.94 23.1593 114.298 22.1311 115.012 21.216C115.727 20.3006 116.529 19.8431 117.418 19.8431C118.07 19.8431 118.557 20.0807 118.88 20.5561C119.129 20.0807 119.481 19.8431 119.936 19.8431C120.158 19.8431 120.348 19.9247 120.504 20.088C120.66 20.2517 120.738 20.4493 120.738 20.6811C120.738 20.8653 120.669 21.1476 120.532 21.5278L118.538 27.0373V27.0373ZM117.506 24.3628L118.149 22.5976C118.202 22.4492 118.229 22.3274 118.229 22.2321C118.229 22.054 118.158 21.9053 118.018 21.7864C117.878 21.6675 117.702 21.608 117.49 21.608C117.109 21.608 116.745 21.8532 116.398 22.3437C116.051 22.8339 115.878 23.3524 115.878 23.8992C115.878 24.5233 116.137 24.8353 116.656 24.8353C117.106 24.8353 117.389 24.6777 117.506 24.3628V24.3628ZM115.838 28.9806H114.464C113.988 28.9806 113.619 29.0938 113.357 29.3195C113.094 29.5453 112.963 29.8634 112.963 30.2735C112.963 30.5527 113.053 30.7906 113.233 30.9866C113.413 31.1829 113.636 31.2807 113.901 31.2807C114.282 31.2807 114.615 31.1113 114.901 30.7727C115.187 30.4338 115.499 29.8365 115.838 28.9806Z" fill="#0284C7"/>
</svg>
